<?xml version="1.0" encoding="utf-8"?>
<!-- Generator: Adobe Illustrator 27.6.1, SVG Export Plug-In . SVG Version: 6.00 Build 0)  -->
<svg version="1.1" id="Layer_1" xmlns="http://www.w3.org/2000/svg" xmlns:xlink="http://www.w3.org/1999/xlink" x="0px" y="0px"
	 viewBox="0 0 512 512" style="enable-background:new 0 0 512 512;" xml:space="preserve">
<style type="text/css">
	.st0{fill:#B1DD8C;}
</style>
<path class="st0" d="M208.4,71.5h106.2c3.2,0,5.9,2.7,5.9,6v30h-118v-30C202.5,74.2,205.2,71.5,208.4,71.5z M167.5,90.8v30.9h-47
	c-25.9,0-47,22.2-47,49.5v74.2h141h94h141v-74.2c0-27.3-21.1-49.5-47-49.5h-47V90.8c0-23.9-18.4-43.3-41.1-43.3H208.6
	C185.9,47.5,167.5,66.9,167.5,90.8z M449.5,287.5H308.1v26.2c0,14.5-10.5,26.2-23.6,26.2h-47.1c-13,0-23.6-11.7-23.6-26.2v-26.2
	H72.5v104.7c0,28.9,21.1,52.3,47.1,52.3h282.8c26,0,47.1-23.5,47.1-52.3V287.5z"/>
</svg>
