<?xml version="1.0" encoding="utf-8"?>
<!-- Generator: Adobe Illustrator 27.6.1, SVG Export Plug-In . SVG Version: 6.00 Build 0)  -->
<svg version="1.1" id="Layer_1" xmlns="http://www.w3.org/2000/svg" xmlns:xlink="http://www.w3.org/1999/xlink" x="0px" y="0px"
	 viewBox="0 0 576 512" style="enable-background:new 0 0 576 512;" xml:space="preserve">
<style type="text/css">
	.st0{fill:#B1DD8C;}
</style>
<path class="st0" d="M304,240V16.6c0-9,7-16.6,16-16.6c123.7,0,224,100.3,224,224c0,9-7.6,16-16.6,16H304z M32,272
	c0-121.3,90.1-221.7,207-237.7c9.2-1.3,17,6.1,17,15.4V288l156.5,156.5c6.7,6.7,6.2,17.7-1.5,23.1c-39.2,28-87.2,44.4-139,44.4
	C139.5,512,32,404.6,32,272z M558.4,288c9.3,0,16.6,7.8,15.4,17c-7.7,55.9-34.6,105.6-73.9,142.3c-6,5.6-15.4,5.2-21.2-0.7L320,288
	H558.4z"/>
</svg>
