<?xml version="1.0" encoding="utf-8"?>
<!-- Generator: Adobe Illustrator 27.6.1, SVG Export Plug-In . SVG Version: 6.00 Build 0)  -->
<svg version="1.1" id="Layer_1" xmlns="http://www.w3.org/2000/svg" xmlns:xlink="http://www.w3.org/1999/xlink" x="0px" y="0px"
	 viewBox="0 0 512 512" style="enable-background:new 0 0 512 512;" xml:space="preserve">
<style type="text/css">
	.st0{fill:#B1DD8C;}
</style>
<path class="st0" d="M352,96c0,14.3-3.1,27.9-8.8,40.2l52.8,91.2c-23.7,25.3-54.2,44.1-88.5,53.6L256,192l0,0l0,0l-68,117.5
	c21.5,6.8,44.3,10.5,68.1,10.5c70.7,0,133.8-32.7,174.9-84c11.1-13.8,31.2-16,45-5s16,31.2,5,45c-52.9,65.8-134,108-225,108
	c-35.4,0-69.4-6.4-100.7-18.1l-56.6,97.8c-4.7,8.1-11.7,14.7-20.1,18.9l-55.4,27.7c-5,2.5-10.9,2.2-15.6-0.7S0,501.5,0,496v-55.4
	c0-8.4,2.2-16.7,6.5-24.1l60-103.7c-12.8-11.2-24.7-23.5-35.3-36.8c-11.1-13.8-8.8-33.9,5-45s33.9-8.8,45,5
	c5.7,7.1,11.8,13.8,18.2,20.1l69.4-119.9C163.2,124,160,110.4,160,96c0-53,43-96,96-96S352,43,352,96L352,96z M373,393.9
	c32.6-12.8,62.5-30.8,88.9-52.9l43.7,75.5c4.2,7.3,6.5,15.6,6.5,24.1V496c0,5.5-2.9,10.7-7.6,13.6s-10.6,3.2-15.6,0.7l-55.4-27.7
	c-8.4-4.2-15.4-10.8-20.1-18.9L373,393.9z M256,128c17.7,0,32-14.3,32-32s-14.3-32-32-32s-32,14.3-32,32S238.3,128,256,128z"/>
</svg>
