<?xml version="1.0" encoding="utf-8"?>
<!-- Generator: Adobe Illustrator 27.6.1, SVG Export Plug-In . SVG Version: 6.00 Build 0)  -->
<svg version="1.1" id="Layer_1" xmlns="http://www.w3.org/2000/svg" xmlns:xlink="http://www.w3.org/1999/xlink" x="0px" y="0px"
	 viewBox="0 0 448 512" style="enable-background:new 0 0 448 512;" xml:space="preserve">
<style type="text/css">
	.st0{fill:#B1DD8C;}
	.st1{fill:#39BA90;}
</style>
<path class="st0" d="M415.8,117v37.2c0,34.2-86.4,61.9-193,61.9s-193-27.7-193-61.9V117c0-34.2,86.4-61.9,193-61.9
	S415.8,82.8,415.8,117z M367.7,237.2c17.8-5.4,34.2-12.4,46.9-21.1v75c0,32.5-85.9,58.9-191.8,58.9S31,323.6,31,291.1v-75
	c12.8,8.7,29.1,15.6,46.9,21.1c38.5,11.8,89.7,18.6,144.9,18.6S329.3,248.9,367.7,237.2z M31,346.1c12.8,9,29.1,16.2,46.9,21.8
	c38.5,12.2,89.7,19.3,144.9,19.3s106.5-7.1,144.9-19.3c17.8-5.6,34.2-12.9,46.9-21.8v65.5c0,33.7-85.9,61-191.8,61
	S31,445.3,31,411.6V346.1z"/>
<path class="st1" d="M421.6,345.4c0.9,2.4,0.1,5.1-1.8,6.9l-12.4,11c0.3,2.3,0.5,4.7,0.5,7.1s-0.2,4.8-0.5,7.1l12.4,11
	c2,1.7,2.7,4.4,1.8,6.9c-1.3,3.3-2.8,6.5-4.5,9.6l-1.3,2.3c-1.9,3.1-4,6-6.3,8.7c-1.7,2-4.5,2.7-7,1.9l-15.9-4.9
	c-3.8,2.9-8.1,5.3-12.6,7.1l-3.6,15.9c-0.6,2.5-2.6,4.6-5.2,5c-3.9,0.6-8,1-12.2,1c-4.1,0-8.2-0.3-12.2-1c-2.6-0.4-4.6-2.4-5.2-5
	l-3.6-15.9c-4.5-1.8-8.8-4.2-12.6-7.1l-15.9,5c-2.5,0.8-5.3,0.1-7-1.9c-2.3-2.7-4.4-5.6-6.3-8.7l-1.3-2.3c-1.7-3.1-3.3-6.3-4.5-9.6
	c-0.9-2.4-0.1-5.1,1.8-6.9l12.4-11c-0.3-2.3-0.5-4.7-0.5-7.1s0.2-4.8,0.5-7.1l-12.4-11c-2-1.7-2.7-4.4-1.8-6.9
	c1.3-3.3,2.8-6.5,4.5-9.6l1.3-2.3c1.9-3.1,4-6,6.3-8.7c1.7-2,4.5-2.7,7-1.9l15.9,4.9c3.8-2.9,8.1-5.3,12.6-7.1l3.6-15.9
	c0.6-2.5,2.6-4.6,5.2-5c3.9-0.7,8-1,12.2-1c4.1,0,8.2,0.3,12.2,1c2.6,0.4,4.6,2.4,5.2,5l3.6,15.9c4.5,1.8,8.8,4.2,12.6,7.1l15.9-4.9
	c2.5-0.8,5.3-0.1,7,1.9c2.3,2.7,4.4,5.6,6.3,8.7l1.3,2.3C418.9,338.8,420.4,342,421.6,345.4L421.6,345.4z M353,392.7
	c12.6,0,22.9-10,22.9-22.3S365.7,348,353,348s-22.9,10-22.9,22.3S340.4,392.7,353,392.7z"/>
</svg>
