<?xml version="1.0" encoding="utf-8"?>
<!-- Generator: Adobe Illustrator 27.6.1, SVG Export Plug-In . SVG Version: 6.00 Build 0)  -->
<svg version="1.1" id="Layer_1" xmlns="http://www.w3.org/2000/svg" xmlns:xlink="http://www.w3.org/1999/xlink" x="0px" y="0px"
	 viewBox="0 0 640 512" style="enable-background:new 0 0 640 512;" xml:space="preserve">
<style type="text/css">
	.st0{fill:#B1DD8C;}
</style>
<path class="st0" d="M335.5,4l288,160c15.4,8.6,21,28.1,12.4,43.5s-28.1,21-43.5,12.4L320,68.6L47.5,220c-15.4,8.6-34.9,3-43.5-12.4
	s-3-34.9,12.4-43.5L304.5,4c9.7-5.4,21.4-5.4,31.1,0H335.5z M320,160c22.1,0,40,17.9,40,40s-17.9,40-40,40s-40-17.9-40-40
	S297.9,160,320,160z M144,256c22.1,0,40,17.9,40,40s-17.9,40-40,40s-40-17.9-40-40S121.9,256,144,256z M456,296
	c0-22.1,17.9-40,40-40c22.1,0,40,17.9,40,40s-17.9,40-40,40C473.9,336,456,318.1,456,296z M226.9,491.4L200,441.5V480
	c0,17.7-14.3,32-32,32h-48c-17.7,0-32-14.3-32-32v-38.5l-26.9,49.9c-6.3,11.7-20.8,16-32.5,9.8s-16-20.8-9.8-32.5l37.9-70.3
	c15.3-28.5,45.1-46.3,77.5-46.3h19.5c16.3,0,31.9,4.5,45.4,12.6l33.6-62.3c15.3-28.5,45.1-46.3,77.5-46.3h19.5
	c32.4,0,62.1,17.8,77.5,46.3l33.6,62.3c13.5-8.1,29.1-12.6,45.4-12.6h19.5c32.4,0,62.1,17.8,77.5,46.3l37.9,70.3
	c6.3,11.7,1.9,26.2-9.8,32.5s-26.2,1.9-32.5-9.8L552,441.5V480c0,17.7-14.3,32-32,32h-48c-17.7,0-32-14.3-32-32v-38.5l-26.9,49.9
	c-6.3,11.7-20.8,16-32.5,9.8s-16-20.8-9.8-32.5l36.3-67.5c-1.7-1.7-3.2-3.6-4.3-5.8L376,345.5V400c0,17.7-14.3,32-32,32h-48
	c-17.7,0-32-14.3-32-32v-54.5l-26.9,49.9c-1.2,2.2-2.6,4.1-4.3,5.8l36.3,67.5c6.3,11.7,1.9,26.2-9.8,32.5S233.1,503.1,226.9,491.4
	L226.9,491.4z"/>
</svg>
